<?xml version="1.0" encoding="UTF-8"?>
<svg id="Layer_1" data-name="Layer 1" xmlns="http://www.w3.org/2000/svg" viewBox="0 0 898.86 905.2">
  <defs>
    <style>
      .cls-1, .cls-2 {
        fill: #ffa19e;
      }

      .cls-3 {
        fill: #c7ddff;
      }
    </style>
  </defs>
  <g>
    <g>
      <path class="cls-3" d="M898.86,478.33c-288.9,221.15-333.72-45.49-138.41-214.8,21.72-18.83,87.14-16.77,95.31-23.47,70.3-57.6-131.97-32.65-214.23,74.71-193.6,252.69,130.41,450.04,257.33,163.55Z"/>
      <path class="cls-3" d="M566.84,838.41c-48.15-149.32-58.76-289-31.55-415.17,1.9-8.81,3.99-17.54,6.26-26.19,55.37-214.05,209.07-332.58,297.6-304.88.44-.14.72-.18,1.06-.18h3.01v.61c3.76-2.23-17.01-21.4-22.02-23.78-.12-.06-.23-.12-.35-.19-147.69-94.52-256.42,85.85-312.61,203.12-1.44,3-5.85,2.36-6.44-.92-29.62-166.7-190.18-298.62-299.97-90.95-1.65,3.12,1.95,6.36,4.9,4.44,40.24-26.17,78.6-39.15,102.46-33.35,209.84,51.04,16.87,488.52,255.07,690.25,2.59,2.19,6.37-.33,5.49-3.5l-2.91.69Z"/>
      <path class="cls-3" d="M162.1,557.49c35.83-38.33,50.97-93.42,89.05-129.78-58.86,152.36-22.83,214.55,82.7,66.16,4.09,38.37,18,96.25,97.08,126.51.15-.13-2.86-11.12-2.86-11.12-82.71-102.91,11.17-304.72-97.3-198.01-15.75,35.93-25.62,79.33-56.69,106.79,11.2-65.26,43.61-127.39,64.9-188.93,3.76-13.08,11.28-42.32-13.68-35.31-26.08,7.33-71.58,86.96-93.2,107.17,7.42-31.25,61.76-112.29,43.25-139.95-44.9-34.33-51.05-33.86-99.13-3.06C123.63,291.38-34.51,408.03,6.81,478.02c17.61,17.66,16.97-21.7,23.14-35.5,13.07-54.09,251.46-294.69,171.6-96.24-27.76,67.25-54.89,135.07-83.77,201.88-61.32,106.28-2.31,54.05,44.32,9.33Z"/>
      <path class="cls-2" d="M811.88,92c-27.73,0-59.27,11.26-91.2,32.58-33.44,22.32-65.84,54.82-93.71,94.01-48.68,68.44-168.92,272.69-57.28,618.9-5.67-36.52-31.83-181.55-32.29-218.65-4.53-141.42,48.62-323.71,146.57-419.1h0c25.4-26.99,63.05-65.54,154.09-103.91,8.21-3.46-10.48,5.2,0,0-8.08-2.54-16.88-3.83-26.19-3.83Z"/>
      <circle class="cls-1" cx="512" cy="77.61" r="77.61"/>
    </g>
    <g>
      <path class="cls-1" d="M375.81,199.73c-1.96.73-3.91,1.46-5.86,2.23-.02,0-.04.02-.06.02-31.75,12.52-61.12,29.03-87.71,49.21-2.24,1.7-4.47,3.42-6.67,5.17.69.53,1.36,1.03,2.07,1.57h0s2.23,3.15,2.23,3.15l5.15-4c26.57-20.29,56.31-37.09,88.45-49.64l6.04-2.3s0,0,0,0c-1.18-1.86-2.4-3.66-3.65-5.42Z"/>
      <path class="cls-1" d="M442.44,625.58c-13.54-64.72-17.18-131.22-20.7-195.54-4.86-88.87-9.45-172.81-41.82-224.19l-2.64-4-6.57,1.32,3.83,6.07c31.49,49.98,36.04,133.12,40.85,221.14,2.96,54.16,6.01,109.87,14.97,164.89-30.62-44.74-30.86-106.81-31.04-152.82-.07-18.32-.13-34.14-2.12-45.85-1.24-7.34-3.14-12.68-5.97-16.8-3.98-5.79-9.92-8.98-16.73-8.98-12.01,0-27.22,9.93-50.86,33.19l-1.4,1.37-.79,1.79c-3.92,8.95-7.52,18.43-11,27.6-3.99,10.52-8.04,21.18-12.7,31.4,7.98-24.59,17.79-48.9,27.4-72.73,8.07-20,16.42-40.67,23.45-60.99l.09-.26.07-.26c4.25-14.8,7.55-31.32-.25-41.67-2.64-3.51-7.63-7.69-16.41-7.69-2.96,0-6.09.47-9.57,1.45-13.78,3.87-29,20.18-47.35,44.14,2.82-6.62,5.41-13.2,7.57-19.54,7.58-22.27,8.6-37.98,3.2-49.42l-2.78-5.9-5.05,4.21,2.08,4.4c10.07,21.35-9.34,61.85-26.46,97.58-3.88,8.09-7.65,15.97-10.78,23.06,5.36-6.96,11.29-15.15,17.39-23.59,21.62-29.91,46.13-63.81,63.92-68.81,2.87-.81,5.51-1.21,7.85-1.21,6.15,0,9.55,2.81,11.32,5.16,6.15,8.17,2.81,23.58-.78,36.09l-.03.1-.03.1c-6.98,20.17-15.29,40.77-23.33,60.69-15.13,37.49-30.73,76.13-39.08,115.49,17.22-19.46,26.86-44.86,36.22-69.52,3.45-9.1,7.02-18.5,10.88-27.3l.3-.67.52-.52c22.05-21.69,36.35-31.36,46.4-31.36,12.97,0,15.58,15.42,16.43,20.49,1.9,11.2,1.96,26.78,2.03,44.82.2,49.62.46,117.58,38.09,164.39l.5.62.21.76s.76,2.76,1.5,5.54c.37,1.4.74,2.81,1.01,3.87.53,2.14.99,3.98-.78,5.56l-1.73,1.55-2.17-.83c-35.66-13.65-62.1-34.44-78.57-61.81-12.34-20.5-17.33-41.69-19.73-58.16-37.55,51.34-68.14,78.4-88.72,78.4-6.88,0-12.61-3.06-16.58-8.85-12.89-18.8-7.27-66.33,14.88-128.98-13.14,16.13-23.6,34.72-33.79,52.83-12.23,21.74-24.88,44.22-42.16,62.71l-.07.08-.08.07c-1.6,1.53-3.21,3.07-4.83,4.62l-5.31,5.05,1.61,7.25,8.08-7.7c1.63-1.55,3.25-3.1,4.85-4.64l.2-.19.19-.2c17.81-19.05,30.64-41.87,43.06-63.93,3.13-5.57,6.23-11.07,9.36-16.45-3.25,12.42-5.67,24-7.19,34.52-3.96,27.31-1.96,47.01,5.96,58.55,5.14,7.49,12.89,11.61,21.83,11.61,21.26,0,49.83-23.28,85.08-69.27,3.14,14.17,8.46,30.21,17.93,45.95,17.23,28.61,44.73,50.31,81.75,64.47l2.61,1,6.74-1.95.32,1.52,6.11-1.85-.63-3.03Z"/>
      <path class="cls-1" d="M158.93,440.15l.11-.27c5.03-12.26,10.05-24.52,15.07-36.78.1-.24.2-.49.3-.73,7.72-18.88,15.71-38.4,23.6-57.53.95-2.36,1.83-4.62,2.68-6.83-9.35,14.27-17.58,29.2-24.63,44.75-10.42,22.97-18.01,46.73-22.76,71.06,1.88-4.56,3.75-9.12,5.62-13.67h0Z"/>
      <path class="cls-1" d="M553.66,180.15h0s0,0,0,0h0s0,0,0,0c.4-.64.57-.91.65-1.05.28-.44.56-.9.84-1.34l-7.05-.71c-12.1-1.13-24.32-1.72-36.63-1.72-10.3,0-20.52.42-30.68,1.21-2.28.18-4.56.35-6.83.57.42.81.83,1.63,1.24,2.44h-.01s1.18,2.35,1.18,2.35c13.49,26.88,23.5,56.95,28.97,87.05,15.78-32.85,31.18-61.24,47.04-86.76l1.28-2.05ZM507.74,249.59c-5.58-23.15-13.73-45.9-23.92-66.89,9.13-.66,18.34-1.01,27.65-1.01,11.09,0,22.06.5,32.9,1.42-12.34,20.15-24.41,42.04-36.63,66.48Z"/>
      <path class="cls-1" d="M443.08,628.61h0l-.07-.34-.56-2.7-6.64-.78-262.31-.08c-6.07-16.3-10.82-33.18-14.14-50.52l-2.2-6.69-2.55,2.43v-.03c-.73.68-1.45,1.36-2.16,2.03.45,2.5.93,4.99,1.44,7.47,3.3,16.11,7.85,31.99,13.65,47.54l1.54,4.14h4.42s263.62.09,263.62.09h6.51c-.19-.85-.36-1.69-.54-2.54Z"/>
      <path class="cls-1" d="M651.79,516.3c10.63,27.59,33.48,42.17,66.08,42.17,39.01,0,90.46-21.24,148.78-61.42l1.94-1.36s0,0,0,.01c2.02-1.4,4.04-2.82,6.08-4.27-.18-2.41-.38-4.81-.61-7.21-3.37-35-12.46-69.01-27.18-101.45-18.37-40.49-44.65-76.84-78.12-108.04-.93-.86-1.86-1.72-2.8-2.57-1.56-1.42-3.14-2.83-4.72-4.23-1.55,1.36-3.08,2.71-4.58,4.07l-.21.19-.34.31c-95.47,86.41-125,190.11-104.31,243.8ZM667.11,406.88c12.83-32.26,39.42-80.94,93.26-129.67l.84-.76c60.18,54.72,99.75,129.03,106.84,211.9l-5,3.44c-57.26,39.45-107.46,60.3-145.17,60.3-29.75,0-50.54-13.17-60.15-38.09-10.39-26.96-6.97-66,9.39-107.13Z"/>
      <path class="cls-2" d="M872.45,534.07h0s-.61.87-.61.87c-20.49,29.62-44.42,52.33-71.13,67.5-24.62,13.98-50.57,21.07-77.13,21.07-55.18,0-104.86-31.19-129.65-81.41-15.05-30.49-19.88-66.21-13.97-103.31,6.66-41.82,26.36-84.32,58.55-126.34,19.81-25.85,48.64-49.49,83.41-68.38.19-.1.37-.21.56-.31l2.06-1.11h.02c.85-.44,1.71-.91,2.55-1.35-1.99-1.37-4.01-2.69-6.02-4.02-12.25-8.07-25.03-15.41-38.27-22.02l.02-.02h-.08c-1.93-.97-3.88-1.92-5.83-2.86-1.51,1.61-3.01,3.24-4.5,4.88h0s-.01.02-.02.02h0c-91.38,101.35-135.21,275.45-131.17,401.41v.04s0,.04,0,.04c.02,1.77.1,3.79.24,6.04.12,1.95.28,4.08.48,6.36h6.21s.08.01.08.01h0s301.14.09,301.14.09h4.42s1.55-4.14,1.55-4.14c10.25-27.44,16.63-55.89,19.08-84.86.35-4.09.61-8.2.8-12.31-.91,1.38-1.84,2.74-2.77,4.09ZM547.85,624.83l-.02-.39c-.13-2.18-.21-4.1-.23-5.73v-.06s0-.1,0-.1c-3.78-117.85,35.16-292.32,129.55-397l1.23-1.36c12.59,6.2,24.74,13.08,36.38,20.59-33.7,18.93-61.75,42.29-81.3,67.81-32.84,42.87-52.96,86.34-59.78,129.21-6.12,38.41-1.09,75.45,14.55,107.13,19.93,40.38,55.31,68.96,96.86,79.95l-137.23-.04ZM849.37,624.92l-86.93-.03c14.12-3.65,27.96-9.29,41.4-16.93,23.27-13.22,44.45-31.95,63.15-55.78-2.98,25.19-8.96,49.55-17.62,72.73Z"/>
    </g>
  </g>
  <g>
    <path class="cls-1" d="M145.4,905.19v-114h32.25v114h-32.25ZM175.2,860.73v-26.71h48.53v26.71h-48.53ZM221.45,905.19v-114h32.25v114h-32.25Z"/>
    <path class="cls-1" d="M262.82,905.19l50.33-114h31.76l50.49,114h-33.55l-39.41-98.21h12.7l-39.41,98.21h-32.9ZM290.34,882.88l8.31-23.62h55.7l8.31,23.62h-72.31Z"/>
    <path class="cls-1" d="M404.67,905.19v-114h32.25v88.44h54.23v25.57h-86.48Z"/>
    <path class="cls-1" d="M504.02,905.19v-114h32.25v114h-32.25Z"/>
    <path class="cls-1" d="M559.23,905.19v-114h89.25v25.08h-57v88.92h-32.25ZM589.03,866.1v-24.92h52.61v24.92h-52.61Z"/>
    <path class="cls-1" d="M645.55,905.19l50.33-114h31.76l50.49,114h-33.55l-39.41-98.21h12.7l-39.41,98.21h-32.9ZM673.07,882.88l8.31-23.62h55.7l8.31,23.62h-72.31Z"/>
    <path class="cls-1" d="M769.32,905.19l49.84-69.38-.16,22.96-47.88-67.59h36.32l30.46,44.14h-15.31l30.13-44.14h34.69l-47.72,66.45v-22.8l50.49,70.36h-37.13l-31.11-46.42h14.82l-30.62,46.42h-36.81Z"/>
  </g>
  <g>
    <path class="cls-1" d="M264.72,751.36l42.64-42.94c1.7-1.7,3.08-3.28,4.13-4.73,1.05-1.45,1.8-2.83,2.25-4.13.45-1.3.68-2.65.68-4.05,0-3.5-1.13-6.28-3.38-8.33-2.25-2.05-5.28-3.08-9.08-3.08-3.4,0-6.56,1.03-9.46,3.08-2.9,2.05-6.01,5.53-9.31,10.43l-19.52-17.57c4.4-7,10.08-12.31,17.04-15.92,6.96-3.6,14.89-5.4,23.8-5.4,8.11,0,15.09,1.43,20.94,4.28,5.86,2.85,10.36,6.93,13.51,12.24,3.15,5.31,4.73,11.61,4.73,18.92,0,4.11-.55,7.96-1.65,11.56-1.1,3.6-2.85,7.13-5.26,10.58-2.4,3.45-5.51,6.98-9.31,10.58l-26.88,25.52-35.88-1.05ZM264.72,767.43v-16.07l24.92-8.56h56.3v24.62h-81.23Z"/>
    <path class="cls-1" d="M400.75,769.23c-9.21,0-17.39-2.38-24.55-7.13-7.16-4.75-12.79-11.31-16.89-19.67-4.11-8.36-6.16-17.89-6.16-28.6s2.03-20.22,6.08-28.53c4.05-8.31,9.63-14.81,16.74-19.52,7.11-4.7,15.26-7.06,24.47-7.06s17.54,2.35,24.7,7.06c7.15,4.71,12.76,11.21,16.82,19.52,4.05,8.31,6.08,17.87,6.08,28.68s-2.03,20.37-6.08,28.68c-4.05,8.31-9.63,14.81-16.74,19.52-7.11,4.71-15.26,7.06-24.47,7.06ZM400.6,743.71c3.7,0,6.85-1.15,9.46-3.45,2.6-2.3,4.58-5.68,5.93-10.13,1.35-4.45,2.03-9.83,2.03-16.14s-.68-11.66-2.03-16.06c-1.35-4.4-3.33-7.78-5.93-10.13-2.6-2.35-5.81-3.53-9.61-3.53-3.6,0-6.71,1.15-9.31,3.45-2.6,2.3-4.58,5.66-5.93,10.06-1.35,4.41-2.03,9.76-2.03,16.07s.68,11.69,2.03,16.14c1.35,4.46,3.33,7.86,5.93,10.21,2.6,2.35,5.75,3.53,9.46,3.53Z"/>
    <path class="cls-1" d="M589.47,751.36l42.64-42.94c1.7-1.7,3.08-3.28,4.13-4.73,1.05-1.45,1.8-2.83,2.25-4.13.45-1.3.68-2.65.68-4.05,0-3.5-1.13-6.28-3.38-8.33-2.25-2.05-5.28-3.08-9.08-3.08-3.4,0-6.56,1.03-9.46,3.08-2.9,2.05-6.01,5.53-9.31,10.43l-19.52-17.57c4.4-7,10.08-12.31,17.04-15.92,6.96-3.6,14.89-5.4,23.8-5.4,8.11,0,15.09,1.43,20.94,4.28,5.86,2.85,10.36,6.93,13.51,12.24,3.15,5.31,4.73,11.61,4.73,18.92,0,4.11-.55,7.96-1.65,11.56-1.1,3.6-2.85,7.13-5.26,10.58-2.4,3.45-5.51,6.98-9.31,10.58l-26.88,25.52-35.88-1.05ZM589.47,767.43v-16.07l24.92-8.56h56.3v24.62h-81.23Z"/>
    <path class="cls-1" d="M718.44,769.23c-7.81,0-14.84-1.65-21.09-4.96-6.26-3.3-11.21-7.78-14.86-13.44-3.65-5.65-5.48-12.03-5.48-19.14,0-8.41,2.9-16.87,8.71-25.37l31.08-45.79h33.33l-35.88,49.55-11.26-2.4c1.7-2.5,3.33-4.65,4.88-6.46,1.55-1.8,3.45-3.2,5.71-4.2,2.25-1,5.23-1.5,8.93-1.5,7.01,0,13.31,1.63,18.92,4.88,5.6,3.25,10.08,7.61,13.44,13.06,3.35,5.46,5.03,11.54,5.03,18.24,0,7.11-1.83,13.49-5.48,19.14-3.65,5.66-8.58,10.13-14.79,13.44-6.21,3.3-13.26,4.96-21.17,4.96ZM718.44,744.31c2.5,0,4.73-.58,6.68-1.73,1.95-1.15,3.48-2.75,4.58-4.8,1.1-2.05,1.65-4.38,1.65-6.98s-.55-4.93-1.65-6.98c-1.1-2.05-2.63-3.65-4.58-4.8-1.95-1.15-4.18-1.73-6.68-1.73s-4.73.58-6.68,1.73c-1.95,1.15-3.48,2.75-4.58,4.8-1.1,2.05-1.65,4.38-1.65,6.98s.55,4.93,1.65,6.98c1.1,2.05,2.63,3.65,4.58,4.8,1.95,1.15,4.18,1.73,6.68,1.73Z"/>
  </g>
</svg>